<svg xmlns="http://www.w3.org/2000/svg" viewBox="0 0 30.97 3.11"><path d="M2.04 2.41a.25.25 0 0 1 .13.21.23.23 0 0 1-.21.22.33.33 0 0 1-.17-.07L.15 1.68C.06 1.62 0 1.58 0 1.46s.06-.16.15-.21L1.79.16a.35.35 0 0 1 .17-.07.23.23 0 0 1 .21.22.26.26 0 0 1-.14.21L.6 1.46zm1.33.56c-.07.08-.07.19-.2.19a.21.21 0 0 1-.2-.19.43.43 0 0 1 .09-.21l1.5-2.6c0-.08.09-.15.19-.15a.19.19 0 0 1 .2.19.25.25 0 0 1-.05.15zm2.93-.06c0 .13 0 .2-.2.2a.18.18 0 0 1-.2-.2V0h1.28a.61.61 0 0 1 .46.16.62.62 0 0 1 .19.53v.54a.65.65 0 0 1-.17.51.59.59 0 0 1-.53.19H6.3zm0-1.38h.89c.24 0 .29-.06.29-.28V.69c0-.23-.05-.29-.29-.29H6.3zm4.36 1.29c0 .09 0 .29-.19.29s-.17-.14-.17-.27v-.06l-.31.2a.66.66 0 0 1-.33.13h-.29a.5.5 0 0 1-.35-.14c-.18-.15-.17-.31-.18-.52V1.24c0-.14 0-.29.19-.29s.19.14.19.27V2.4a.57.57 0 0 0 0 .24c0 .06.13.08.22.08h.13a.21.21 0 0 0 .12 0l.61-.39V1.22c0-.13 0-.27.19-.27s.19.14.19.27zm1-1.58c0-.14 0-.29.19-.29s.19.13.19.26v.16l.26-.21a.58.58 0 0 1 .34-.17h.31a.51.51 0 0 1 .38.16.54.54 0 0 1 .17.43c0 .13 0 .27-.19.27s-.19-.11-.19-.24a.23.23 0 0 0 0-.16c-.05-.07-.14-.07-.24-.07h-.11a.28.28 0 0 0-.19.09l-.54.44v1c0 .14 0 .27-.19.27s-.19-.13-.19-.27zm4.14-.08c.07-.06.17-.16.26-.16a.19.19 0 0 1 .24.16c0 .09-.06.14-.13.19l-.74.62.9.75c.08.06.14.1.14.2a.19.19 0 0 1-.19.2.28.28 0 0 1-.18-.09l-1-.81-.16.15v.48c0 .14 0 .27-.19.27s-.19-.13-.19-.27V.43c0-.14 0-.27.19-.27s.19.13.19.27v1.42zm2.76 1.56h.29c.13 0 .26 0 .26.2s-.15.19-.26.19h-1c-.11 0-.26 0-.26-.19s.13-.2.26-.2h.31V1.34h-.31c-.11 0-.26 0-.26-.19s.13-.2.26-.2h.45c.22 0 .28 0 .28.27zM17.98.16a.16.16 0 0 1 .18-.18h.22a.16.16 0 0 1 .18.18v.2a.16.16 0 0 1-.18.18h-.22a.16.16 0 0 1-.18-.18zm2.96 1.18c-.11 0-.26 0-.26-.19s.14-.2.26-.2h.53a.59.59 0 0 1 .5.18.55.55 0 0 1 .17.45v1.3c0 .12-.05.23-.18.23a.21.21 0 0 1-.2-.19l-.26.13a.34.34 0 0 1-.2.11h-.36a.59.59 0 0 1-.44-.14.53.53 0 0 1-.2-.47v-.22a.47.47 0 0 1 .19-.42.62.62 0 0 1 .45-.15h.82v-.09c0-.28-.06-.33-.34-.33zm0 .8c-.1 0-.26 0-.26.17v.26c0 .13.16.15.25.15h.43l.42-.22v-.08c0-.21-.06-.28-.27-.28zm.73-2.12h.08a.24.24 0 0 1 .21.25.13.13 0 0 1-.08.13l-.76.38h-.08c-.1 0-.17-.11-.17-.21a.15.15 0 0 1 .07-.13zm2.56.93a.57.57 0 0 1 .38.22l.07.06v-.8c0-.14 0-.27.19-.27s.19.13.19.27v2.41c0 .13 0 .27-.19.27s-.19-.13-.19-.26l-.09.08a.62.62 0 0 1-.37.2h-.37a.59.59 0 0 1-.33-.14l-.13-.11a.5.5 0 0 1-.21-.44v-.8a.5.5 0 0 1 .21-.48l.13-.11a.5.5 0 0 1 .37-.14zm-.67 1.31c0 .11 0 .25.06.3l.12.09a.26.26 0 0 0 .14.07h.28a.33.33 0 0 0 .14-.09l.22-.19c.06 0 .12-.1.12-.17v-.48c0-.07-.06-.12-.12-.17l-.22-.19a.33.33 0 0 0-.18-.09h-.28a.26.26 0 0 0-.14.07l-.12.1c-.06 0-.06.18-.06.29zm3.14-.92c-.11 0-.26 0-.26-.19s.14-.2.26-.2h.53a.59.59 0 0 1 .5.18.55.55 0 0 1 .17.45v1.3c0 .12-.05.23-.18.23a.21.21 0 0 1-.2-.19l-.22.13a.34.34 0 0 1-.24.06h-.36a.59.59 0 0 1-.4-.14.53.53 0 0 1-.2-.47v-.17a.47.47 0 0 1 .2-.42.62.62 0 0 1 .45-.15h.82v-.09c0-.28-.06-.33-.34-.33zm0 .8c-.1 0-.26 0-.26.17v.26c0 .13.16.15.25.15h.43l.42-.22v-.08c0-.21-.06-.28-.27-.28zm3.66-.68L28.94.52a.24.24 0 0 1-.14-.21.21.21 0 0 1 .21-.22.31.31 0 0 1 .16.06l1.65 1.1c.09.05.15.1.15.21s-.06.16-.15.22l-1.64 1.09a.36.36 0 0 1-.18.07.22.22 0 0 1-.2-.22.23.23 0 0 1 .13-.21z" fill="#00833e"/></svg>