<svg xmlns="http://www.w3.org/2000/svg" viewBox="0 0 511.14 512"><title>browser</title><path d="M170,146.54H132a7.5,7.5,0,1,0,0,15h38a7.5,7.5,0,0,0,0-15Z" style="fill:#00833e"/><path d="M214,146.54H196a7.5,7.5,0,0,0,0,15h18a7.5,7.5,0,0,0,0-15Z" style="fill:#00833e"/><path d="M156.49,180.53A7.5,7.5,0,0,0,164,188h25a7.51,7.51,0,0,0,0-15H164A7.5,7.5,0,0,0,156.49,180.53Z" style="fill:#00833e"/><path d="M201,215.47a7.51,7.51,0,1,0,0-15H188a7.51,7.51,0,1,0,0,15Z" style="fill:#00833e"/><path d="M307.07,200.46h-25a7.51,7.51,0,0,0,0,15h25a7.51,7.51,0,0,0,0-15Z" style="fill:#00833e"/><path d="M272.05,173H212a7.51,7.51,0,0,0,0,15h60a7.51,7.51,0,0,0,0-15Z" style="fill:#00833e"/><path d="M259,200.46H223a7.51,7.51,0,0,0,0,15h36a7.51,7.51,0,1,0,0-15Z" style="fill:#00833e"/><path d="M132,264.48h21a7.51,7.51,0,0,0,0-15H132a7.51,7.51,0,1,0,0,15Z" style="fill:#00833e"/><path d="M166.5,257a7.5,7.5,0,0,0,7.5,7.51h77a7.51,7.51,0,0,0,0-15H174A7.5,7.5,0,0,0,166.5,257Z" style="fill:#00833e"/><path d="M156.49,283.46A7.5,7.5,0,0,0,164,291h73a7.51,7.51,0,1,0,0-15H164A7.5,7.5,0,0,0,156.49,283.46Z" style="fill:#00833e"/><path d="M250.54,283.46A7.5,7.5,0,0,0,258,291h14a7.51,7.51,0,0,0,0-15H258A7.5,7.5,0,0,0,250.54,283.46Z" style="fill:#00833e"/><path d="M132,363h38a7.51,7.51,0,0,0,0-15H132a7.51,7.51,0,1,0,0,15Z" style="fill:#00833e"/><path d="M196,363h18a7.51,7.51,0,0,0,0-15H196a7.51,7.51,0,0,0,0,15Z" style="fill:#00833e"/><path d="M156.49,382c0,4.14,3.36,7.5,4.47,8.52h25c7.17-1,10.53-4.38,10.53-8.52a7.5,7.5,0,0,0-7.5-7.51H164A7.5,7.5,0,0,0,156.49,382Z" style="fill:#00833e"/><path d="M188,416.88h13a7.5,7.5,0,1,0,0-15H188a7.5,7.5,0,1,0,0,15Z" style="fill:#00833e"/><path d="M282.05,416.88h25a7.5,7.5,0,1,0,0-15h-25a7.5,7.5,0,0,0,0,15Z" style="fill:#00833e"/><path d="M279.55,382a7.5,7.5,0,0,0-7.5-7.51H212a7.51,7.51,0,0,0,0,15h60A7.5,7.5,0,0,0,279.55,382Z" style="fill:#00833e"/><path d="M223,401.88a7.5,7.5,0,1,0,0,15h36a7.5,7.5,0,1,0,0-15Z" style="fill:#00833e"/><path d="M120.12,119.14a7.51,7.51,0,0,0-10.59-.74L96.66,129.59A30.79,30.79,0,1,0,106,141.34l13.35-11.61A7.51,7.51,0,0,0,120.12,119.14ZM78,169.79a15.75,15.75,0,0,1,0-31.5,15.56,15.56,0,0,1,6.81,1.58L73.11,150.08A7.5,7.5,0,1,0,83,161.4l10.69-9.29a15.26,15.26,0,0,1,.13,1.93A15.77,15.77,0,0,1,78,169.79Z" style="fill:#00833e"/><path d="M78,291a30.73,30.73,0,0,0,27.41-44.66l13.93-12.11a7.51,7.51,0,1,0-9.85-11.33L95.6,235A30.75,30.75,0,1,0,78,291Zm0-46.51a15.52,15.52,0,0,1,5.5,1l-10.43,9.07A7.5,7.5,0,0,0,83,265.87l10.44-9.08a16.07,16.07,0,0,1,.38,3.42A15.75,15.75,0,1,1,78,244.46Z" style="fill:#00833e"/><path d="M78,389.92a30.74,30.74,0,0,0,27.6-44.3l13.74-11.95a7.51,7.51,0,0,0-9.85-11.33l-13.6,11.84A30.75,30.75,0,1,0,78,389.92Zm0-46.5A15.58,15.58,0,0,1,84,344.59L73.11,354A7.5,7.5,0,1,0,83,365.34l10.53-9.15a15.26,15.26,0,0,1,.29,3A15.75,15.75,0,1,1,78,343.42Z" style="fill:#00833e"/><path d="M45.22,25a22,22,0,1,0,22,22A22,22,0,0,0,45.22,25Zm0,29a7,7,0,1,1,7-7A7,7,0,0,1,45.22,54Z" style="fill:#00833e"/><path d="M101.29,25a22,22,0,1,0,22,22A22.05,22.05,0,0,0,101.29,25Zm0,29a7,7,0,1,1,7-7A7,7,0,0,1,101.29,54Z" style="fill:#00833e"/><path d="M157.35,25a22,22,0,1,0,22,22A22,22,0,0,0,157.35,25Zm0,29a7,7,0,1,1,7-7A7,7,0,0,1,157.35,54Z" style="fill:#00833e"/><path d="M466.14,342.83V30.66A30.69,30.69,0,0,0,435.48,0H30.66A30.69,30.69,0,0,0,0,30.66V168.84a7.51,7.51,0,0,0,15,0V94H451.13V335.79a90.25,90.25,0,0,0-30.78-5.38A91.28,91.28,0,0,0,403.26,332a7.5,7.5,0,0,0,2.81,14.74,75.85,75.85,0,1,1-37,18.62A7.51,7.51,0,0,0,359,354.32a90.75,90.75,0,0,0-24.32,96.81h-304A15.67,15.67,0,0,1,15,435.48V214.78a7.51,7.51,0,0,0-15,0v220.7a30.69,30.69,0,0,0,30.66,30.66H341.48A90.78,90.78,0,1,0,466.14,342.83ZM451.13,79H15V30.66A15.67,15.67,0,0,1,30.66,15H435.48a15.67,15.67,0,0,1,15.65,15.65Z" style="fill:#00833e"/><path d="M353.75,432.71a12.78,12.78,0,0,0,3.77,9.09l.07.07L395,478.18a14.53,14.53,0,0,0,20.47-.05l67.24-67.24a14.52,14.52,0,0,0,0-20.52L465,372.68a14.52,14.52,0,0,0-20.52,0l-39.85,39.84-8.93-8.93a12.84,12.84,0,0,0-18.18,0l-20,20A12.78,12.78,0,0,0,353.75,432.71Zm32.88-17,12.72,12.72a7.5,7.5,0,0,0,10.61,0l44.79-44.8,17,17L405.2,467.17l-35.53-34.49Z" style="fill:#00833e"/></svg>