<svg xmlns="http://www.w3.org/2000/svg" viewBox="0 0 774.3 77.8"><title>Datový zdroj 1@300x-dotted</title><path d="M59.9,66.3c2,1.3,3.2,2.6,3.3,5.1A5.57,5.57,0,0,1,58,76.9a7.85,7.85,0,0,1-4.3-1.7L12.6,47.9c-2.2-1.4-3.7-2.5-3.7-5.4s1.5-4,3.7-5.4L53.8,9.7a7.6,7.6,0,0,1,4.1-1.5,5.56,5.56,0,0,1,5.3,5.4c0,2.6-1.6,4-3.5,5.3L24.1,42.5Z" transform="translate(-8.9 -5.9)" style="fill:#fff"/><path d="M93.2,80.2c-1.2,2.1-2.4,3.5-4.9,3.5a5,5,0,0,1-5-4.7c0-1.9,1.2-3.6,2.2-5.2L122.9,9.7c1.2-2,2.4-3.8,4.9-3.8a4.87,4.87,0,0,1,4.9,4.7,7.78,7.78,0,0,1-1.1,3.9Z" transform="translate(-8.9 -5.9)" style="fill:#fff"/><path d="M165.3,78.7c0,3.2-1.4,5-5,5s-5-1.8-5-5V5.9h33.2c4.6,0,7.9.7,11.5,4.1,4.3,4,4.7,7.7,4.7,13.1V36.7c0,5.1-.4,8.7-4.1,12.8-3.9,4.4-8,4.8-13.4,4.8H165.3Zm0-34.4h22.2c5.9,0,7.2-1.5,7.2-7.2v-14c0-5.7-1.3-7.2-7.2-7.2H165.3Z" transform="translate(-8.9 -5.9)" style="fill:#fff"/><path d="M275.5,76.6c0,2.2.4,7.1-4.7,7.1-4.1,0-4.8-3.4-4.8-6.7V75.4l-7.8,5.1c-3.1,2-5.7,3.2-8.3,3.2h-7.1a13.36,13.36,0,0,1-8.9-3.5c-4.3-3.7-4.2-7.8-4.4-13l-1-30.2c-.1-3.5.4-7.2,4.8-7.2,4.1,0,4.6,3.5,4.7,6.6l1,29.5c.1,2.2.2,4.8,1,6.2s3.3,2,5.6,2h3.2a5.29,5.29,0,0,0,3-.9l14.1-8.9V36.4c0-3.3.7-6.6,4.8-6.6s4.8,3.3,4.8,6.6Z" transform="translate(-8.9 -5.9)" style="fill:#fff"/><path d="M300.5,36.9c0-3.5.4-7.1,4.8-7.1,3.8,0,4.8,3.2,4.8,6.4v3.9l7.5-6.2c2.7-2.2,5.5-4.1,8.5-4.1h7.7a12.67,12.67,0,0,1,9.4,3.8c3.2,3.2,4.3,6.5,4.3,10.9,0,3.3-.6,6.7-4.7,6.7-3.5,0-4.9-2.8-4.9-5.9a6.29,6.29,0,0,0-1-4.2c-1.2-1.7-3.5-1.7-5.8-1.7h-2.8c-1.8,0-3.1.9-4.8,2.3L310.1,52.8V77.1c0,3.3-.7,6.6-4.8,6.6s-4.8-3.3-4.8-6.6Z" transform="translate(-8.9 -5.9)" style="fill:#fff"/><path d="M404.1,33.7c1.7-1.5,4.1-3.9,6.4-3.9a4.82,4.82,0,0,1,4.8,4.9c0,2.3-1.5,3.4-3.2,4.8L393.49,54.9,416.1,73.7c1.8,1.5,3.4,2.6,3.4,5.1a4.82,4.82,0,0,1-4.8,4.9c-1.9,0-3.1-1.2-4.5-2.3L386.09,61.3l-4,3.6V77.1c0,3.3-.7,6.6-4.8,6.6s-4.8-3.3-4.8-6.6V16.6c0-3.3.7-6.6,4.8-6.6s4.8,3.3,4.8,6.6V52.2Z" transform="translate(-8.9 -5.9)" style="fill:#fff"/><path d="M473,74.1h7.2c3.2,0,6.6.7,6.6,4.8s-3.8,4.8-6.6,4.8h-24.4c-2.8,0-6.6-.6-6.6-4.8s3.4-4.8,6.6-4.8h7.6V39.4h-7.6c-2.8,0-6.6-.6-6.6-4.8s3.4-4.8,6.6-4.8h10.1c5.5,0,7.1,1,7.1,6.7Zm-14.5-63.7c0-3.4,1.9-4.5,4.5-4.5h5.5c2.6,0,4.5,1.1,4.5,4.5V15c0,3.4-1.9,4.5-4.5,4.5H463c-2.6,0-4.5-1.1-4.5-4.5Z" transform="translate(-8.9 -5.9)" style="fill:#fff"/><path d="M532.59,39.4c-2.8,0-6.6-.6-6.6-4.8s3.4-4.8,6.6-4.8h13.2c5,0,8.6.5,12.4,4.3s4.2,6.6,4.3,11.4l1,32.6c.1,2.8-1.3,5.6-4.5,5.6a4.89,4.89,0,0,1-4.9-4.8l-6.6,3.4c-2.7,1.4-2.8,1.4-5.9,1.4h-9.2c-4.3,0-7.4-.5-10.9-3.4-4-3.3-5-6.8-5-11.8V64.3c0-4.6,1.1-7.5,4.7-10.7,3.3-2.9,7-3.6,11.2-3.6H553V47.8c0-7.2-1.6-8.4-8.5-8.4Zm-.1,20.2c-2.6,0-6.4.7-6.4,4.2v6.4c0,3.2,3.9,3.9,6.2,3.9h10.6l10.6-5.5V66.5c0-5.3-1.5-6.9-6.8-6.9Zm18.3-53.2a4.23,4.23,0,0,1,2-.5c2.9,0,5.5,3.5,5.3,6.4a3.71,3.71,0,0,1-2.1,3.2l-19.1,9.4a4.07,4.07,0,0,1-1.8.5c-2.5,0-4.4-2.7-4.4-5.1a3.72,3.72,0,0,1,1.9-3.4Z" transform="translate(-8.9 -5.9)" style="fill:#fff"/><path d="M614.79,29.8c3.3,0,6,1.8,9.5,5.3l1.6,1.7V16.6c0-3.3.7-6.6,4.8-6.6s4.8,3.3,4.8,6.6V77c0,3.3-.7,6.7-4.8,6.7-3.8,0-4.8-3.2-4.8-6.4v-.6l-2.1,2.1c-3,2.8-6.3,4.9-9.2,4.9h-9.3c-3.2,0-6.8-2.2-8.2-3.4l-3.3-2.8c-4-3.4-5.3-6-5.3-11.1V47.1c0-5.1,1.3-7.7,5.3-11.1l3.3-2.8a12,12,0,0,1,9.2-3.4Zm-16.7,32.8c0,2.7,0,6.1,1.5,7.3l2.9,2.3c1.2,1,2.4,1.9,3.6,1.9h6.8c1.2,0,2.9-.8,4.7-2.4l5.5-4.7c1.4-1.2,2.8-2.4,2.8-4.2V50.7c0-1.8-1.4-3-2.8-4.2l-5.5-4.7c-1.8-1.6-3.5-2.4-4.7-2.4h-6.8c-1.2,0-2.4.9-3.6,1.9l-2.9,2.3c-1.5,1.2-1.5,4.6-1.5,7.3Z" transform="translate(-8.9 -5.9)" style="fill:#fff"/><path d="M676.59,39.4c-2.8,0-6.6-.6-6.6-4.8s3.4-4.8,6.6-4.8h13.2c5,0,8.6.5,12.4,4.3s4.2,6.6,4.3,11.4l1,32.6c.1,2.8-1.3,5.6-4.5,5.6a4.89,4.89,0,0,1-4.9-4.8l-6.6,3.4c-2.7,1.4-2.8,1.4-5.9,1.4h-9.2c-4.3,0-7.4-.5-10.9-3.4-4-3.3-5-6.8-5-11.8V64.3c0-4.6,1.1-7.5,4.7-10.7,3.3-2.9,7-3.6,11.2-3.6H697V47.8c0-7.2-1.6-8.4-8.5-8.4Zm-.1,20.2c-2.6,0-6.4.7-6.4,4.2v6.4c0,3.2,3.9,3.9,6.2,3.9h10.6l10.6-5.5V66.5c0-5.3-1.5-6.9-6.8-6.9Z" transform="translate(-8.9 -5.9)" style="fill:#fff"/><path d="M768,42.5l-35.6-23.6c-1.9-1.3-3.5-2.7-3.5-5.3a5.56,5.56,0,0,1,5.3-5.4,7.6,7.6,0,0,1,4.1,1.5l41.2,27.4c2.2,1.4,3.8,2.6,3.7,5.4s-1.5,4-3.7,5.4l-41.1,27.3a7.85,7.85,0,0,1-4.3,1.7,5.57,5.57,0,0,1-5.2-5.5c.1-2.5,1.3-3.8,3.3-5.1Z" transform="translate(-8.9 -5.9)" style="fill:#fff"/></svg>