<svg xmlns="http://www.w3.org/2000/svg" viewBox="0 0 85.17 8.56"><path d="M5.61 6.64a.66.66 0 0 1 .36.56.61.61 0 0 1-.57.61.86.86 0 0 1-.47-.19l-4.52-3C.17 4.45 0 4.34 0 4.02s.17-.44.41-.57l4.53-3a.83.83 0 0 1 .45-.2.61.61 0 0 1 .58.6.7.7 0 0 1-.38.6L1.68 4.02zm3.66 1.53c-.13.23-.26.39-.54.39a.56.56 0 0 1-.55-.52 1.13 1.13 0 0 1 .25-.59l4.11-7c.13-.22.27-.42.54-.42a.53.53 0 0 1 .54.51.91.91 0 0 1-.12.43zm7.93-.16a.55.55 0 1 1-1.1 0v-8h3.66a1.58 1.58 0 0 1 1.26.44 1.68 1.68 0 0 1 .52 1.44v1.5a1.82 1.82 0 0 1-.45 1.4 1.69 1.69 0 0 1-1.48.53H17.2zm0-3.79h2.48c.65 0 .79-.16.79-.79V1.89c0-.63-.14-.79-.79-.79H17.2zm12.13 3.56c0 .24 0 .78-.52.78s-.53-.38-.53-.74v-.18l-.86.56a1.65 1.65 0 0 1-.91.36h-.78a1.46 1.46 0 0 1-1-.39 1.68 1.68 0 0 1-.48-1.43l-.09-3.29c0-.39 0-.79.52-.79s.51.38.52.72l.11 3.25a1.7 1.7 0 0 0 .11.68.75.75 0 0 0 .62.22h.35a.56.56 0 0 0 .29-.08l1.55-1v-3.1c0-.36.08-.72.53-.72s.53.36.53.72zm2.75-4.33c0-.39 0-.78.52-.78s.53.35.53.7v.43l.83-.68a1.56 1.56 0 0 1 .93-.45h.85a1.36 1.36 0 0 1 1 .42 1.51 1.51 0 0 1 .48 1.19c0 .37-.07.74-.52.74s-.54-.31-.54-.65a.69.69 0 0 0-.11-.46c-.13-.19-.38-.19-.64-.19h-.31a.79.79 0 0 0-.52.26l-1.45 1.18v2.67c0 .36-.07.73-.53.73s-.52-.37-.52-.73zm11.39-.39c.19-.17.45-.43.71-.43a.53.53 0 0 1 .52.54c0 .25-.16.37-.35.52l-2 1.7 2.44 2.06c.2.16.38.28.38.56a.54.54 0 0 1-.53.54.79.79 0 0 1-.5-.26l-2.65-2.2-.44.4v1.34c0 .36-.07.73-.53.73S40 8.19 40 7.83V1.18c0-.37.07-.73.52-.73s.53.36.53.73v3.91zm7.58 4.44h.79c.36 0 .73.08.73.53s-.42.53-.73.53h-2.68c-.31 0-.73-.07-.73-.53s.38-.53.73-.53H50V3.68h-.84c-.31 0-.73-.06-.73-.52s.38-.53.73-.53h1.11c.61 0 .78.11.78.73zM49.46.45a.43.43 0 0 1 .49-.49h.61a.43.43 0 0 1 .49.49v.51a.43.43 0 0 1-.49.49h-.61a.43.43 0 0 1-.49-.49zm8.15 3.23c-.31 0-.73-.06-.73-.52s.38-.53.73-.53h1.45a1.64 1.64 0 0 1 1.36.47 1.52 1.52 0 0 1 .48 1.25l.11 3.59c0 .31-.15.62-.5.62a.54.54 0 0 1-.54-.53l-.72.42a.94.94 0 0 1-.65.16h-1a1.64 1.64 0 0 1-1.2-.38 1.48 1.48 0 0 1-.55-1.3v-.48a1.38 1.38 0 0 1 .51-1.17 1.75 1.75 0 0 1 1.24-.4h2.26v-.27c0-.79-.17-.93-.93-.93zm0 2.23c-.29 0-.71.07-.71.46v.7c0 .35.43.43.68.43h1.17l1.17-.6v-.24c0-.58-.17-.75-.75-.75zm2-5.86a.48.48 0 0 1 .22 0 .68.68 0 0 1 .58.7.38.38 0 0 1-.23.35l-2.1 1a.49.49 0 0 1-.2 0 .55.55 0 0 1-.48-.56.4.4 0 0 1 .21-.37zm7.07 2.58a1.51 1.51 0 0 1 1 .58l.18.19V1.18c0-.37.08-.73.53-.73s.53.36.53.73v6.64c0 .36-.08.74-.53.74s-.53-.36-.53-.71v-.06l-.18.23a1.66 1.66 0 0 1-1 .54h-1a1.66 1.66 0 0 1-.9-.38l-.36-.31a1.36 1.36 0 0 1-.58-1.22V4.53a1.36 1.36 0 0 1 .58-1.22l.26-.31a1.34 1.34 0 0 1 1-.37zm-1.87 3.61c0 .29 0 .67.17.8l.32.25a.69.69 0 0 0 .39.21h.75a.93.93 0 0 0 .52-.26l.6-.52c.16-.13.31-.26.31-.46V4.93c0-.2-.15-.33-.31-.47l-.6-.51a.89.89 0 0 0-.52-.27h-.76a.69.69 0 0 0-.39.21l-.32.26c-.17.13-.17.5-.17.8zm8.64-2.56c-.31 0-.73-.06-.73-.52s.38-.53.73-.53h1.45a1.64 1.64 0 0 1 1.36.47 1.52 1.52 0 0 1 .48 1.25l.11 3.59c0 .31-.15.62-.5.62a.54.54 0 0 1-.54-.53l-.72.42a.94.94 0 0 1-.65.16h-1a1.64 1.64 0 0 1-1.2-.38 1.48 1.48 0 0 1-.56-1.35v-.43a1.38 1.38 0 0 1 .51-1.17 1.75 1.75 0 0 1 1.24-.4h2.25v-.27c0-.79-.17-.93-.93-.93zm0 2.23c-.29 0-.71.07-.71.46v.7c0 .35.43.43.68.43h1.16l1.17-.6v-.24c0-.58-.17-.75-.75-.75zM83.5 4.02l-3.92-2.57a.72.72 0 0 1-.38-.58.61.61 0 0 1 .58-.62.8.8 0 0 1 .45.17l4.54 3c.24.15.41.29.4.59s-.16.44-.4.6l-4.53 3a.83.83 0 0 1-.47.19.61.61 0 0 1-.57-.61.66.66 0 0 1 .36-.56z" fill="#00833e"/></svg>