<svg xmlns="http://www.w3.org/2000/svg" width="393" height="512" viewBox="0 0 393 512">
  <g id="checklist-light" transform="translate(-59.5)">
    <path id="Path_2580" data-name="Path 2580" d="M445,167.364a7.5,7.5,0,0,0,7.5-7.5V107.5A22.526,22.526,0,0,0,430,85h-7.5V65A22.526,22.526,0,0,0,400,42.5h-7.5v-20A22.526,22.526,0,0,0,370,0H82A22.526,22.526,0,0,0,59.5,22.5V63.865a7.5,7.5,0,1,0,15,0V22.5A7.508,7.508,0,0,1,82,15H370a7.508,7.508,0,0,1,7.5,7.5v382A7.508,7.508,0,0,1,370,412H82a7.508,7.508,0,0,1-7.5-7.5V95.865a7.5,7.5,0,0,0-15,0V404.5A22.526,22.526,0,0,0,82,427h7.5v20A22.526,22.526,0,0,0,112,469.5h7.5v20A22.526,22.526,0,0,0,142,512H430a22.526,22.526,0,0,0,22.5-22.5V191.679a7.5,7.5,0,0,0-15,0V489.5A7.508,7.508,0,0,1,430,497H142a7.508,7.508,0,0,1-7.5-7.5v-20H319.867a7.5,7.5,0,0,0,0-15H112a7.509,7.509,0,0,1-7.5-7.5V427H370a22.526,22.526,0,0,0,22.5-22.5V57.5H400a7.508,7.508,0,0,1,7.5,7.5V447a7.508,7.508,0,0,1-7.5,7.5H351.681a7.5,7.5,0,0,0,0,15H400A22.526,22.526,0,0,0,422.5,447V100H430a7.508,7.508,0,0,1,7.5,7.5v52.364A7.5,7.5,0,0,0,445,167.364Z" fill="#ccc"/>
    <path id="Path_2581" data-name="Path 2581" d="M110,124v52a11.513,11.513,0,0,0,11.5,11.5h52A11.513,11.513,0,0,0,185,176V137.324l15.37-13.12a7.5,7.5,0,0,0-9.74-11.408l-6.924,5.91A11.512,11.512,0,0,0,173.5,112.5h-52A11.513,11.513,0,0,0,110,124Zm15,3.5h45v2.907l-14.882,12.7-7.106-7.7a7.5,7.5,0,1,0-11.022,10.174l12,13a7.5,7.5,0,0,0,10.381.617L170,150.129V172.5H125v-45Z" fill="#ccc"/>
    <path id="Path_2582" data-name="Path 2582" d="M334.5,124.5h-120a7.5,7.5,0,0,0,0,15h120a7.5,7.5,0,0,0,0-15Z" fill="#ccc"/>
    <path id="Path_2583" data-name="Path 2583" d="M334.5,156.5h-120a7.5,7.5,0,0,0,0,15h120a7.5,7.5,0,0,0,0-15Z" fill="#ccc"/>
    <path id="Path_2584" data-name="Path 2584" d="M110,273a11.513,11.513,0,0,0,11.5,11.5h52A11.513,11.513,0,0,0,185,273V221a11.513,11.513,0,0,0-11.5-11.5h-52A11.513,11.513,0,0,0,110,221Zm15-48.5h45v45H125Z" fill="#ccc"/>
    <path id="Path_2585" data-name="Path 2585" d="M334.5,221.5h-120a7.5,7.5,0,0,0,0,15h120a7.5,7.5,0,0,0,0-15Z" fill="#ccc"/>
    <path id="Path_2586" data-name="Path 2586" d="M334.5,253.5h-120a7.5,7.5,0,0,0,0,15h120a7.5,7.5,0,0,0,0-15Z" fill="#ccc"/>
    <path id="Path_2587" data-name="Path 2587" d="M110,370a11.513,11.513,0,0,0,11.5,11.5h52A11.513,11.513,0,0,0,185,370V318a11.513,11.513,0,0,0-11.5-11.5h-52A11.513,11.513,0,0,0,110,318Zm15-48.5h45v45H125Z" fill="#ccc"/>
    <path id="Path_2588" data-name="Path 2588" d="M334.5,318.5h-120a7.5,7.5,0,0,0,0,15h120a7.5,7.5,0,0,0,0-15Z" fill="#ccc"/>
    <path id="Path_2589" data-name="Path 2589" d="M334.5,350.5h-120a7.5,7.5,0,0,0,0,15h120a7.5,7.5,0,0,0,0-15Z" fill="#ccc"/>
    <path id="Path_2590" data-name="Path 2590" d="M296.5,35.5h-138a25,25,0,0,0,0,50h138a25,25,0,0,0,0-50Zm0,35h-138a10,10,0,0,1,0-20h138a10,10,0,0,1,0,20Z" fill="#ccc"/>
  </g>
</svg>
