<svg xmlns="http://www.w3.org/2000/svg" viewBox="0 0 30.97 3.11"><title>logo-2</title><path d="M2.74,3.25a.25.25,0,0,1,.13.21.23.23,0,0,1-.21.22.33.33,0,0,1-.17-.07L.85,2.52C.76,2.46.7,2.42.7,2.3s.06-.16.15-.21L2.49,1A.35.35,0,0,1,2.66.93a.23.23,0,0,1,.21.22.26.26,0,0,1-.14.21L1.3,2.3Z" transform="translate(-0.7 -0.84)" style="fill:#00833e"/><path d="M4.07,3.81C4,3.89,4,4,3.87,4a.21.21,0,0,1-.2-.19.43.43,0,0,1,.09-.21L5.26,1c0-.08.09-.15.19-.15a.19.19,0,0,1,.2.19.25.25,0,0,1-.05.15Z" transform="translate(-0.7 -0.84)" style="fill:#00833e"/><path d="M7,3.75c0,.13,0,.2-.2.2a.18.18,0,0,1-.2-.2V.84H7.88A.61.61,0,0,1,8.34,1a.62.62,0,0,1,.19.53v.54a.65.65,0,0,1-.17.51.59.59,0,0,1-.53.19H7ZM7,2.37h.89c.24,0,.29-.06.29-.28V1.53c0-.23-.05-.29-.29-.29H7Z" transform="translate(-0.7 -0.84)" style="fill:#00833e"/><path d="M11.36,3.66c0,.09,0,.29-.19.29S11,3.81,11,3.68V3.62l-.31.2a.66.66,0,0,1-.33.13h-.29a.5.5,0,0,1-.35-.14c-.18-.15-.17-.31-.18-.52l0-1.21c0-.14,0-.29.19-.29s.19.14.19.27l0,1.18a.57.57,0,0,0,0,.24c0,.06.13.08.22.08h.13a.21.21,0,0,0,.12,0L11,3.17V2.06c0-.13,0-.27.19-.27s.19.14.19.27Z" transform="translate(-0.7 -0.84)" style="fill:#00833e"/><path d="M12.36,2.08c0-.14,0-.29.19-.29s.19.13.19.26v.16L13,2a.58.58,0,0,1,.34-.17h.31a.51.51,0,0,1,.38.16.54.54,0,0,1,.17.43c0,.13,0,.27-.19.27s-.19-.11-.19-.24a.23.23,0,0,0,0-.16c-.05-.07-.14-.07-.24-.07h-.11a.28.28,0,0,0-.19.09l-.54.44v1c0,.14,0,.27-.19.27s-.19-.13-.19-.27Z" transform="translate(-0.7 -0.84)" style="fill:#00833e"/><path d="M16.5,2c.07-.06.17-.16.26-.16A.19.19,0,0,1,17,2c0,.09-.06.14-.13.19l-.74.62.9.75c.08.06.14.1.14.2a.19.19,0,0,1-.19.2.28.28,0,0,1-.18-.09l-1-.81-.16.15v.48c0,.14,0,.27-.19.27s-.19-.13-.19-.27V1.27c0-.14,0-.27.19-.27s.19.13.19.27V2.69Z" transform="translate(-0.7 -0.84)" style="fill:#00833e"/><path d="M19.26,3.56h.29c.13,0,.26,0,.26.2s-.15.19-.26.19h-1c-.11,0-.26,0-.26-.19s.13-.2.26-.2h.31V2.18h-.31c-.11,0-.26,0-.26-.19s.13-.2.26-.2H19c.22,0,.28,0,.28.27ZM18.68,1a.16.16,0,0,1,.18-.18h.22a.16.16,0,0,1,.18.18V1.2a.16.16,0,0,1-.18.18h-.22a.16.16,0,0,1-.18-.18Z" transform="translate(-0.7 -0.84)" style="fill:#00833e"/><path d="M21.64,2.18c-.11,0-.26,0-.26-.19s.14-.2.26-.2h.53a.59.59,0,0,1,.5.18.55.55,0,0,1,.17.45l0,1.3c0,.12-.05.23-.18.23a.21.21,0,0,1-.2-.19l-.26.13A.34.34,0,0,1,22,4h-.36a.59.59,0,0,1-.44-.14.53.53,0,0,1-.2-.47V3.17a.47.47,0,0,1,.19-.42.62.62,0,0,1,.45-.15h.82V2.51c0-.28-.06-.33-.34-.33Zm0,.8c-.1,0-.26,0-.26.17v.26c0,.13.16.15.25.15h.43l.42-.22V3.26c0-.21-.06-.28-.27-.28ZM22.37.86l.08,0a.24.24,0,0,1,.21.25.13.13,0,0,1-.08.13l-.76.38-.08,0c-.1,0-.17-.11-.17-.21a.15.15,0,0,1,.07-.13Z" transform="translate(-0.7 -0.84)" style="fill:#00833e"/><path d="M24.93,1.79a.57.57,0,0,1,.38.22l.07.06v-.8c0-.14,0-.27.19-.27s.19.13.19.27V3.68c0,.13,0,.27-.19.27s-.19-.13-.19-.26v0l-.09.08a.62.62,0,0,1-.37.2h-.37a.59.59,0,0,1-.33-.14l-.13-.11a.5.5,0,0,1-.21-.44V2.48A.5.5,0,0,1,24.09,2l.13-.11a.5.5,0,0,1,.37-.14ZM24.26,3.1c0,.11,0,.25.06.3l.12.09a.26.26,0,0,0,.14.07h.28A.33.33,0,0,0,25,3.47l.22-.19c.06,0,.12-.1.12-.17V2.63c0-.07-.06-.12-.12-.17L25,2.27a.33.33,0,0,0-.18-.09h-.28a.26.26,0,0,0-.14.07l-.12.1c-.06,0-.06.18-.06.29Z" transform="translate(-0.7 -0.84)" style="fill:#00833e"/><path d="M27.4,2.18c-.11,0-.26,0-.26-.19s.14-.2.26-.2h.53a.59.59,0,0,1,.5.18.55.55,0,0,1,.17.45l0,1.3c0,.12-.05.23-.18.23a.21.21,0,0,1-.2-.19L28,3.89a.34.34,0,0,1-.24.06H27.4A.59.59,0,0,1,27,3.81a.53.53,0,0,1-.2-.47V3.17A.47.47,0,0,1,27,2.75a.62.62,0,0,1,.45-.15h.82V2.51c0-.28-.06-.33-.34-.33Zm0,.8c-.1,0-.26,0-.26.17v.26c0,.13.16.15.25.15h.43l.42-.22V3.26c0-.21-.06-.28-.27-.28Z" transform="translate(-0.7 -0.84)" style="fill:#00833e"/><path d="M31.06,2.3l-1.42-.94a.24.24,0,0,1-.14-.21.21.21,0,0,1,.21-.22.31.31,0,0,1,.16.06l1.65,1.1c.09.05.15.1.15.21s-.06.16-.15.22L29.88,3.61a.36.36,0,0,1-.18.07.22.22,0,0,1-.2-.22.23.23,0,0,1,.13-.21Z" transform="translate(-0.7 -0.84)" style="fill:#00833e"/></svg>