<?xml version="1.0" encoding="iso-8859-1"?>
<!-- Generator: Adobe Illustrator 19.0.0, SVG Export Plug-In . SVG Version: 6.00 Build 0)  -->
<svg version="1.1" id="Capa_1" xmlns="http://www.w3.org/2000/svg" xmlns:xlink="http://www.w3.org/1999/xlink" x="0px" y="0px"
	 viewBox="0 0 512 512" style="enable-background:new 0 0 512 512;" xml:space="preserve">
<g>
	<g>
		<path d="M364.99,30.416V0h-76.04v30.416h-45.624v76.04h167.287v-76.04H364.99z M395.406,91.247H258.535V45.624h45.624V15.208
			h45.624v30.416h45.624V91.247z"/>
	</g>
</g>
<g>
	<g>
		<polygon points="141.941,60.832 141.941,181.43 157.148,181.43 157.148,76.04 225.584,76.04 225.584,60.832 		"/>
	</g>
</g>
<g>
	<g>
		<polygon points="428.356,60.832 428.356,76.04 496.792,76.04 496.792,496.792 157.148,496.792 157.148,391.401 141.941,391.401 
			141.941,512 512,512 512,60.832 		"/>
	</g>
</g>
<g>
	<g>
		<polygon points="172.356,91.247 172.356,202.742 187.564,202.742 187.564,106.455 225.584,106.455 225.584,91.247 		"/>
	</g>
</g>
<g>
	<g>
		<polygon points="428.356,91.247 428.356,106.455 466.376,106.455 466.376,466.376 187.564,466.376 187.564,370.09 172.356,370.09 
			172.356,481.584 481.584,481.584 481.584,91.247 		"/>
	</g>
</g>
<g>
	<g>
		<path d="M98.852,187.564C44.344,187.564,0,231.909,0,286.416s44.344,98.852,98.852,98.852s98.852-44.344,98.852-98.852
			S153.359,187.564,98.852,187.564z M98.852,370.059c-46.122,0-83.644-37.522-83.644-83.644c0-46.122,37.522-83.644,83.644-83.644
			s83.644,37.522,83.644,83.644C182.495,332.537,144.973,370.059,98.852,370.059z"/>
	</g>
</g>
<g>
	<g>
		<polygon points="106.455,278.812 106.455,217.473 91.247,217.473 91.247,294.02 137.378,294.02 137.378,278.812 		"/>
	</g>
</g>
<g>
	<g>
		<rect x="91.247" y="340.151" width="15.208" height="15.208"/>
	</g>
</g>
<g>
	<g>
		<rect x="152.586" y="278.812" width="15.208" height="15.208"/>
	</g>
</g>
<g>
	<g>
		<rect x="29.909" y="278.812" width="15.208" height="15.208"/>
	</g>
</g>
<g>
	<g>
		<path d="M212.911,242.313v55.762h55.762v-55.762H212.911z M253.465,282.867h-25.346v-25.346h25.346V282.867z"/>
	</g>
</g>
<g>
	<g>
		<path d="M212.911,353.838V409.6h55.762v-55.762H212.911z M253.465,394.392h-25.346v-25.347h25.346V394.392z"/>
	</g>
</g>
<g>
	<g>
		<rect x="382.733" y="435.96" width="15.208" height="15.208"/>
	</g>
</g>
<g>
	<g>
		<rect x="352.317" y="435.96" width="15.208" height="15.208"/>
	</g>
</g>
<g>
	<g>
		<polygon points="272.928,130.988 236.737,167.18 222.85,153.293 212.097,164.046 236.737,188.686 283.681,141.741 		"/>
	</g>
</g>
<g>
	<g>
		<rect x="290.471" y="242.313" width="81.109" height="15.208"/>
	</g>
</g>
<g>
	<g>
		<rect x="386.788" y="242.313" width="55.762" height="15.208"/>
	</g>
</g>
<g>
	<g>
		<rect x="290.471" y="272.729" width="50.693" height="15.208"/>
	</g>
</g>
<g>
	<g>
		<rect x="300.61" y="140.927" width="50.693" height="15.208"/>
	</g>
</g>
<g>
	<g>
		<rect x="401.996" y="140.927" width="40.555" height="15.208"/>
	</g>
</g>
<g>
	<g>
		<rect x="366.511" y="140.927" width="20.277" height="15.208"/>
	</g>
</g>
<g>
	<g>
		<rect x="290.471" y="171.343" width="35.485" height="15.208"/>
	</g>
</g>
<g>
	<g>
		<rect x="290.471" y="353.838" width="50.693" height="15.208"/>
	</g>
</g>
<g>
	<g>
		<rect x="356.372" y="353.838" width="86.178" height="15.208"/>
	</g>
</g>
<g>
	<g>
		<rect x="290.471" y="384.253" width="81.109" height="15.208"/>
	</g>
</g>
<g>
	<g>
		<rect x="111.018" y="136.871" width="15.208" height="15.208"/>
	</g>
</g>
<g>
	<g>
		<rect x="50.186" y="136.871" width="15.208" height="15.208"/>
	</g>
</g>
<g>
	<g>
		<rect x="80.602" y="136.871" width="15.208" height="15.208"/>
	</g>
</g>
<g>
	<g>
		<rect x="19.77" y="96.317" width="15.208" height="15.208"/>
	</g>
</g>
<g>
	<g>
		<rect x="80.602" y="96.317" width="15.208" height="15.208"/>
	</g>
</g>
<g>
	<g>
		<rect x="50.186" y="96.317" width="15.208" height="15.208"/>
	</g>
</g>
<g>
	<g>
		<rect x="80.602" y="420.753" width="15.208" height="15.208"/>
	</g>
</g>
<g>
	<g>
		<rect x="111.018" y="420.753" width="15.208" height="15.208"/>
	</g>
</g>
<g>
	<g>
		<rect x="50.186" y="420.753" width="15.208" height="15.208"/>
	</g>
</g>
<g>
	<g>
		<rect x="50.186" y="461.307" width="15.208" height="15.208"/>
	</g>
</g>
<g>
	<g>
		<rect x="80.602" y="461.307" width="15.208" height="15.208"/>
	</g>
</g>
<g>
	<g>
		<rect x="19.77" y="461.307" width="15.208" height="15.208"/>
	</g>
</g>
<g>
	<g>
		<g>
			<rect x="281.347" y="60.832" width="15.208" height="15.208"/>
			<rect x="311.762" y="60.832" width="60.832" height="15.208"/>
		</g>
	</g>
</g>
<g>
	<g>
		<path d="M147.893,307.105c-2.684,6.336-6.528,12.03-11.425,16.927c-4.896,4.897-10.591,8.742-16.927,11.425l5.933,14.003
			c8.145-3.451,15.463-8.388,21.748-14.674c6.287-6.286,11.223-13.604,14.675-21.749L147.893,307.105z"/>
	</g>
</g>
<g>
	<g>
		<path d="M72.229,223.37c-8.145,3.451-15.463,8.388-21.748,14.674c-6.287,6.286-11.223,13.604-14.675,21.749l14.003,5.933
			c2.685-6.336,6.528-12.03,11.425-16.927c4.896-4.897,10.591-8.742,16.927-11.425L72.229,223.37z"/>
	</g>
</g>
<g>
	<g>
		<polygon points="435.96,413.148 435.96,435.96 413.148,435.96 413.148,451.168 451.168,451.168 451.168,413.148 		"/>
	</g>
</g>
<g>
	<g>
		<rect x="356.372" y="272.729" width="15.208" height="15.208"/>
	</g>
</g>
<g>
	<g>
		<rect x="386.788" y="272.729" width="15.208" height="15.208"/>
	</g>
</g>
<g>
	<g>
		<rect x="341.164" y="171.343" width="15.208" height="15.208"/>
	</g>
</g>
<g>
	<g>
		<rect x="371.58" y="171.343" width="15.208" height="15.208"/>
	</g>
</g>
<g>
	<g>
		<rect x="386.788" y="384.253" width="15.208" height="15.208"/>
	</g>
</g>
<g>
</g>
<g>
</g>
<g>
</g>
<g>
</g>
<g>
</g>
<g>
</g>
<g>
</g>
<g>
</g>
<g>
</g>
<g>
</g>
<g>
</g>
<g>
</g>
<g>
</g>
<g>
</g>
<g>
</g>
</svg>
